<svg width="1200" height="630" viewBox="0 0 1200 630" fill="none" xmlns="http://www.w3.org/2000/svg">
  <rect width="1200" height="630" fill="#0f0f23"/>
  <circle cx="100" cy="100" r="1" fill="#ffffff" opacity="0.8"/>
  <circle cx="300" cy="200" r="1.5" fill="#ffffff" opacity="0.6"/>
  <circle cx="500" cy="150" r="0.5" fill="#ffffff" opacity="0.9"/>
  <circle cx="700" cy="300" r="1" fill="#ffffff" opacity="0.7"/>
  <circle cx="900" cy="100" r="2" fill="#ffffff" opacity="0.5"/>
  <circle cx="1100" cy="400" r="1.5" fill="#ffffff" opacity="0.8"/>
  <circle cx="200" cy="400" r="0.8" fill="#ffffff" opacity="0.9"/>
  <circle cx="400" cy="500" r="1.2" fill="#ffffff" opacity="0.6"/>
  <circle cx="600" cy="500" r="0.7" fill="#ffffff" opacity="0.85"/>
  <circle cx="800" cy="450" r="1.8" fill="#ffffff" opacity="0.45"/>
  <circle cx="150" cy="300" r="0.6" fill="#ffffff" opacity="0.7"/>
  <circle cx="350" cy="350" r="1.1" fill="#ffffff" opacity="0.8"/>
  <circle cx="550" cy="250" r="0.9" fill="#ffffff" opacity="0.75"/>
  <circle cx="750" cy="150" r="1.3" fill="#ffffff" opacity="0.65"/>
  <circle cx="950" cy="300" r="0.8" fill="#ffffff" opacity="0.9"/>
  <circle cx="1050" cy="200" r="1.4" fill="#ffffff" opacity="0.55"/>
  <circle cx="250" cy="500" r="0.5" fill="#ffffff" opacity="0.8"/>
  <circle cx="450" cy="250" r="1.6" fill="#ffffff" opacity="0.6"/>
  <circle cx="650" cy="400" r="0.7" fill="#ffffff" opacity="0.85"/>
  <circle cx="850" cy="200" r="1.2" fill="#ffffff" opacity="0.7"/>
  <circle cx="50" cy="250" r="0.9" fill="#ffffff" opacity="0.75"/>
  <circle cx="1150" cy="500" r="1.1" fill="#ffffff" opacity="0.8"/>
</svg>
